<?xml version="1.0" encoding="utf-8"?>
<!-- Generator: Adobe Illustrator 23.0.4, SVG Export Plug-In . SVG Version: 6.00 Build 0)  -->
<svg version="1.1" id="Layer_1" xmlns="http://www.w3.org/2000/svg" xmlns:xlink="http://www.w3.org/1999/xlink" x="0px" y="0px"
	 viewBox="0 0 1000 1000" style="enable-background:new 0 0 1000 1000;" xml:space="preserve">
<style type="text/css">
	.st0{fill:#231F20;}
	.st1{fill:url(#SVGID_1_);}
	.st2{fill:url(#SVGID_2_);}
	.st3{fill:url(#SVGID_3_);}
	.st4{fill:url(#SVGID_4_);}
	.st5{fill:url(#SVGID_5_);}
	.st6{fill:url(#SVGID_6_);}
	.st7{fill:url(#SVGID_7_);}
	.st8{fill:url(#SVGID_8_);}
	.st9{fill:url(#SVGID_9_);}
	.st10{fill:url(#SVGID_10_);}
	.st11{fill:url(#SVGID_11_);}
	.st12{fill:url(#SVGID_12_);}
	.st13{fill:url(#SVGID_13_);}
	.st14{fill:url(#SVGID_14_);}
	.st15{fill:url(#SVGID_15_);}
	.st16{fill:url(#SVGID_16_);}
</style>
<path class="st0" d="M766.5,441.5c-0.2-0.3-0.4-0.6-0.7-0.8c-0.3-0.2-0.5-0.3-0.8-0.4c-0.3-0.1-0.6-0.1-0.8-0.1c-0.1,0-0.4,0-0.5,0
	c-0.1,0-0.2,0-0.3,0c-0.1,0-0.2,0-0.3,0v12.2h0v0.4c0,2.8-0.7,5.1-2.3,6.9c-1.6,2-3.6,3-6.1,3.1l-1.1,0.1l0.4,1
	c0.4,0.9,0.7,1.6,0.9,2l0.2,0.4l0.5-0.1c3.3-0.3,6.1-1.8,8.1-4.4c2-2.6,3-5.7,3-9.4v0v-6.1v-3.6
	C766.8,442.3,766.7,441.8,766.5,441.5"/>
<path class="st0" d="M895.3,452.8c-0.7,0.8-1.5,1.3-2.6,1.3c-1,0-1.9-0.4-2.7-1.3c-0.9-1-1.3-2.4-1.3-4.2c0-1.8,0.4-3.3,1.1-4.2
	c0.7-0.8,1.5-1.2,2.6-1.2c1.1,0,1.9,0.4,2.7,1.3c0.9,1,1.3,2.4,1.3,4.2C896.5,450.4,896.1,451.8,895.3,452.8 M821,453.7
	c1.7-4,3.8-6.8,6.3-8.5c1.6-1,3.3-1.6,5-1.6c0.2,0,0.4,0,0.5,0c2.4,0.2,4.1,2,5.1,5.5c0.4,1.3,0.6,2.9,0.7,4.6H821z M898.2,442.6
	c-1.4-1.8-3.5-2.8-5.8-2.8c-4.7,0-7.5,3.3-7.5,8.7c0,2,0.5,3.7,1.4,5.2h-44c-0.5-8.4-3.7-12.9-9.2-13.5c-0.3,0-0.6,0-0.9,0
	c-2.2,0-4.3,0.7-6.3,2c-2.1,1.4-3.7,3.5-5.2,6.1V433c0-0.5-0.1-0.9-0.2-1.2c-0.2-0.3-0.4-0.6-0.6-0.7c-0.3-0.2-0.5-0.3-0.8-0.3
	c-0.3-0.1-0.5-0.1-0.7-0.1c-0.1,0-0.7,0-0.8,0c-0.1,0-0.2,0-0.3,0v23l-40.4,0c-0.8,0-1.8-0.9-1.8-2.1V431v-0.3c0-0.5-0.1-1-0.3-1.3
	c-0.2-0.3-0.4-0.6-0.7-0.8c-0.3-0.2-0.6-0.3-0.8-0.4c-0.3-0.1-0.6-0.1-0.8-0.1c-0.1,0-0.4,0-0.5,0c-0.1,0-0.2,0-0.3,0
	c-0.1,0-0.2,0-0.3,0v2.7v20.9c0,1.6,0.7,3,1.8,4c0.9,0.9,2,1.4,3.1,1.4h31.6h54.5h30.5h0.1c4.6,0,7.5-3.3,7.5-8.7
	C900.2,446.2,899.5,444.2,898.2,442.6"/>
<path class="st0" d="M507.1,446.4l0,1.4c0,1.9,0.1,3.5,0.1,4.8c0,0.4,0,0.7,0,1h-3.1c-2.4,0-3.7-2.6-3.7-4.9c0-3.4,1.6-5.7,3.9-5.7
	C505.5,442.9,507,443.3,507.1,446.4 M503.9,440.1c-4.3,0-7.5,3.8-7.5,9c0,4.5,3,8.1,6.9,8.1h3.1c-1.3,3.2-4.5,5.7-7.6,5.8l-1.1,0
	l0.4,1c0.3,0.7,0.6,1.3,1,2l0.2,0.4l0.5-0.1c3.1-0.3,5.8-1.8,8.1-4.5c2.9-3.4,2.9-5.6,3-9.9l0-4.6
	C511,442.6,508.5,440.1,503.9,440.1"/>
<path class="st0" d="M492.1,430.7c0-0.5-0.1-1-0.3-1.3c-0.2-0.3-0.4-0.6-0.7-0.8c-0.3-0.2-0.6-0.3-0.8-0.4c-0.3-0.1-0.5-0.1-0.8-0.1
	c-0.1,0-0.4,0-0.5,0c-0.1,0-0.2,0-0.3,0c-0.1,0-0.2,0-0.3,0v3.5v1.5v7.3h0c0,3.9,0,7.4,0,10.5c0,1.9-0.7,2.7-2.5,2.7l-36.1,0
	c-0.4,0-0.7,0-1-0.1c-0.3-0.1-0.5-0.3-0.7-0.5c-0.2-0.3-0.3-0.6-0.4-1.1c-0.1-0.5-0.1-1.1-0.1-2v-8.4h-5.4c-2.9,0-5,0.7-6.3,2
	c-1.4,1.3-2.1,3.4-2.1,6.1v5.1c-0.1,2-0.8,3.7-2.1,5.3c-1.5,1.8-3.5,2.7-5.9,2.7c-2.2,0-4.1-0.9-5.7-2.7c-1.6-1.8-2.4-3.9-2.4-6.4
	c0-0.2,0-0.6,0-1.2h0v-1.8c0-0.5-0.1-1-0.3-1.3c-0.2-0.3-0.4-0.6-0.7-0.8c-0.3-0.2-0.5-0.3-0.8-0.4c-0.3-0.1-0.6-0.1-0.8-0.1
	c-0.1,0-0.2,0-0.4,0c-0.1,0-0.2,0-0.3,0c-0.1,0-0.2,0-0.3,0v2.5c0,0,0,0,0,0v1.8c0,0.5,0,0.9,0,1.1c0,3.4,1.2,6.4,3.4,8.9
	c2.3,2.5,5.1,3.8,8.3,3.8c3.4,0,6.3-1.3,8.6-3.8c2-2.3,3.1-5.2,3.1-8.5l0,0v-4c0-1.1,0.1-1.9,0.4-2.6c0.3-0.7,0.6-1.2,1.2-1.5
	c0.5-0.4,1.1-0.6,1.8-0.7c0.7-0.1,1.5-0.2,2.4-0.2h0.7v6.4c0,1.1,0.2,2,0.4,2.8c0.3,0.8,0.7,1.3,1.2,1.7c0.5,0.5,1,0.8,1.7,1
	c0.6,0.2,1.3,0.3,1.9,0.3h37.1c1.9,0,3.4-0.6,4.5-1.8c0.9-1.1,1.4-2.6,1.4-4.4v-4.7c0-1.9,0-4,0-5.9h0V430.7z"/>
<path class="st0" d="M583.4,429.4c-0.2-0.3-0.4-0.6-0.7-0.8c-0.3-0.2-0.6-0.3-0.8-0.4c-0.3-0.1-0.6-0.1-0.8-0.1c-0.1,0-0.4,0-0.5,0
	c-0.1,0-0.2,0-0.3,0c-0.1,0-0.2,0-0.3,0l0,29h3.7v-23.6v-2.9C583.6,430.1,583.6,429.7,583.4,429.4"/>
<path class="st0" d="M575,429.4c-0.2-0.3-0.4-0.6-0.7-0.8c-0.3-0.2-0.5-0.3-0.8-0.4c-0.3-0.1-0.5-0.1-0.8-0.1c-0.1,0-0.4,0-0.5,0
	c-0.1,0-0.2,0-0.3,0c-0.1,0-0.2,0-0.3,0V451c0,1.8-0.7,2.7-2.5,2.7h-38.2c-0.3-4-1.3-7.2-2.9-9.6c-1.1-1.6-2.3-2.7-3.8-3.3
	c0,0,0,0-0.1,0v0c0,0-0.4-0.1-0.7-0.2c-0.2-0.1-0.9-0.2-1.2-0.1c-0.3,0.1-0.7,0.2-0.9,0.4c-0.2,0.2-0.4,0.4-0.6,0.6
	c-0.1,0.2-0.3,0.5-0.3,0.7c0,0.1-0.1,0.2-0.1,0.3c0,0.1-0.1,0.2-0.1,0.3c0,0.1,0,0.2-0.1,0.3c0,0,1.3,0.2,2.6,0.8l0,0
	c0,0,0.1,0,0.1,0c0.1,0.1,0.2,0.1,0.4,0.2c0.8,0.5,1.6,1.4,2.3,2.7c1.1,2,1.7,4.2,1.9,6.9H516l-1.1,3.6h54.6c1.9,0,3.4-0.6,4.5-1.8
	c0.9-1.1,1.4-2.6,1.4-4.4v-20.3C575.3,430.1,575.2,429.7,575,429.4"/>
<path class="st0" d="M669.9,458.2c-1,0-1.9-0.5-2.7-1.4c-0.9-1.1-1.3-2.6-1.3-4.4c0-3.6,1.5-5.8,3.8-5.8c1,0,1.9,0.5,2.7,1.4
	c0.9,1.1,1.3,2.5,1.3,4.4C673.6,455.9,672.1,458.2,669.9,458.2 M663.2,457.1c1.5,2.6,3.7,3.9,6.6,3.9c3.1,0,5.3-1.4,6.6-3.9h60.9
	v-0.7c0-4.7-0.8-8.4-2.4-11.2c-2-3.6-5.2-5.4-9.4-5.4c-1.6,0-3.2,0.3-4.6,0.8v0c0,0-0.4,0.2-0.6,0.3c-0.2,0.1-0.8,0.5-1,0.8
	c-0.2,0.3-0.3,0.6-0.4,0.9c0,0.3,0,0.6,0.1,0.9c0.1,0.3,0.2,0.5,0.3,0.7c0.1,0.1,0.1,0.2,0.2,0.3c0.1,0.1,0.1,0.2,0.2,0.3
	c0.1,0.1,0.1,0.2,0.2,0.3c0,0,1.4-1,3-1.4c0.9-0.3,2-0.4,3-0.4c2.2,0,3.9,0.9,5.4,2.9c1.4,1.9,2.3,4.5,2.4,7.6h-56.1
	c0-0.4,0.1-0.8,0.1-1.3c0-2.3-0.7-4.3-2-5.9c-1.5-1.8-3.4-2.8-5.8-2.8c-4.6,0-7.5,3.3-7.5,8.7c0,0.4,0,0.9,0.1,1.3l-40.9,0
	c-0.3-4-1.3-7.2-2.9-9.6c-1.1-1.6-2.3-2.7-3.8-3.3c0,0,0,0,0,0c0,0,0,0,0,0s-0.4-0.1-0.7-0.2c-0.2-0.1-0.9-0.2-1.3-0.1
	c-0.4,0.1-0.6,0.2-0.9,0.4c-0.2,0.2-0.4,0.4-0.6,0.6c-0.1,0.2-0.3,0.5-0.3,0.7c0,0.1-0.1,0.2-0.1,0.3c0,0.1-0.1,0.2-0.1,0.3
	c0,0.1,0,0.2-0.1,0.3c0,0,1.3,0.2,2.6,0.8l0,0c1,0.4,1.9,1.4,2.7,2.9c1.1,2,1.7,4.2,1.9,6.9h-11.5l-1.1,3.6L663.2,457.1z"/>
<path class="st0" d="M554.1,514.9h-3.7V487c0.1,0,0.2,0,0.3,0c0.1,0,0.2,0,0.3,0c0.1,0,0.2,0,0.4,0c0.2,0,0.5,0,0.8,0.1
	c0.3,0.1,0.6,0.2,0.9,0.4c0.3,0.2,0.5,0.5,0.7,0.8c0.2,0.3,0.3,0.8,0.3,1.4V514.9z"/>
<path class="st0" d="M560.8,495.2c0.6,0,1.2,0.2,1.7,0.5c0.5,0.3,0.8,0.9,0.9,1.6c0.6-0.6,1.5-1.2,2.6-1.7c1.1-0.5,2.4-0.7,3.9-0.7
	c1.9,0,3.3,0.4,4.3,1.2c1,0.8,1.6,1.9,2,3.1c0.1,0.6,0.2,1.2,0.2,1.8c0,0.7,0,1.3,0,2v11.8H573v-11.7c0-0.5,0-1,0-1.5
	c0-0.5-0.1-0.9-0.2-1.4c-0.2-0.7-0.6-1.3-1.2-1.7c-0.6-0.4-1.5-0.6-2.7-0.6c-1.6,0-2.8,0.3-3.8,0.9c-1,0.6-1.4,1.3-1.4,2v13.9H560
	v-19.7h0.2c0.1,0,0.1,0,0.2,0C560.6,495.2,560.7,495.2,560.8,495.2"/>
<path class="st0" d="M582.7,512.4c-0.2-0.5-0.3-1.1-0.4-1.7c0-0.6-0.1-1.2-0.1-1.8v-19.5h0.2c0.1,0,0.1,0,0.2,0c0.1,0,0.2,0,0.3,0
	c0.7,0,1.4,0.2,2,0.6c0.6,0.4,0.8,1.1,0.8,2.1v3.3h6.2v3.1h-6.2v10.7c0,2.3,0.9,3.4,2.7,3.4c0.4,0,0.9-0.1,1.2-0.2
	c0.4-0.2,0.7-0.3,1-0.6c0.3-0.2,0.6-0.4,0.8-0.6c0.2-0.2,0.3-0.3,0.4-0.4c0.3,0.4,0.6,0.8,0.9,1.2c0.2,0.4,0.4,0.8,0.4,1.1
	c0,0.2-0.1,0.5-0.4,0.8c-0.3,0.3-0.6,0.6-1,0.8c-0.5,0.3-1,0.5-1.6,0.6c-0.7,0.2-1.4,0.3-2.2,0.3c-1.4,0-2.6-0.3-3.5-0.8
	C583.7,514.1,583.1,513.4,582.7,512.4"/>
<path class="st0" d="M608.6,503.1c0-0.8-0.1-1.4-0.2-2.1c-0.2-0.6-0.4-1.2-0.8-1.7c-0.4-0.5-0.8-0.9-1.4-1.1
	c-0.6-0.3-1.3-0.4-2.2-0.4c-1.4,0-2.6,0.5-3.5,1.4c-0.9,0.9-1.4,2.2-1.6,3.9H608.6z M605.1,512.5c0.8,0,1.5-0.1,2.1-0.3
	c0.6-0.2,1.1-0.4,1.6-0.6c0.4-0.3,0.8-0.5,1.1-0.8c0.3-0.3,0.6-0.5,0.8-0.7c0.3,0.4,0.6,0.8,0.8,1.2c0.2,0.4,0.4,0.8,0.4,1
	c0,0.2-0.1,0.5-0.2,0.7c-0.1,0.2-0.4,0.5-0.7,0.7c-0.6,0.5-1.5,0.9-2.5,1.2c-1,0.3-2.2,0.5-3.6,0.5c-1.3,0-2.5-0.2-3.7-0.6
	c-1.1-0.4-2.2-1-3-1.8c-0.9-0.8-1.6-1.9-2.1-3.3c-0.5-1.4-0.8-3-0.8-4.9c0-1.8,0.3-3.3,0.8-4.5c0.5-1.3,1.2-2.3,2-3.1
	c0.8-0.8,1.8-1.4,2.9-1.8c1.1-0.4,2.2-0.6,3.3-0.6c1.4,0,2.6,0.2,3.6,0.7c1,0.5,1.8,1.1,2.5,1.9c0.6,0.8,1.1,1.7,1.4,2.7
	c0.3,1,0.5,2.1,0.5,3.2c0,0.4,0,0.8,0,1.2c0,0.4,0,0.8-0.1,1.2h-13.1c0.1,2,0.6,3.6,1.6,4.9C601.5,511.9,603,512.5,605.1,512.5"/>
<path class="st0" d="M617.5,495.2c0.6,0,1.2,0.2,1.7,0.5c0.5,0.3,0.8,0.9,0.9,1.6c0.4-0.6,1-1.1,1.8-1.7c0.8-0.5,1.7-0.8,2.7-0.8
	c0.3,0,0.6,0,1,0.1c0.3,0,0.7,0.1,1,0.3c0.3,0.1,0.6,0.3,0.8,0.5c0.2,0.2,0.3,0.5,0.3,0.9c0,0.4-0.1,0.9-0.3,1.4
	c-0.2,0.5-0.4,0.9-0.7,1.3c-0.4-0.3-0.8-0.6-1.2-0.8c-0.4-0.2-0.9-0.3-1.6-0.3c-0.5,0-0.9,0.1-1.4,0.2c-0.4,0.2-0.8,0.4-1.1,0.6
	c-0.3,0.3-0.6,0.6-0.8,0.9c-0.2,0.3-0.3,0.7-0.3,1v13.8h-3.5v-19.7h0.3c0.1,0,0.2,0,0.3,0C617.4,495.2,617.4,495.2,617.5,495.2"/>
<path class="st0" d="M631.7,495.2c0.6,0,1.2,0.2,1.7,0.5c0.5,0.3,0.8,0.9,0.9,1.6c0.7-0.6,1.5-1.2,2.6-1.7c1.1-0.5,2.4-0.7,3.9-0.7
	c1.9,0,3.3,0.4,4.3,1.2c1,0.8,1.7,1.9,2,3.1c0.1,0.6,0.2,1.2,0.3,1.8c0,0.7,0,1.3,0,2v11.8h-3.5v-11.7c0-0.5,0-1,0-1.5
	c0-0.5-0.1-0.9-0.2-1.4c-0.2-0.7-0.6-1.3-1.2-1.7c-0.6-0.4-1.5-0.6-2.7-0.6c-1.6,0-2.8,0.3-3.8,0.9c-0.9,0.6-1.4,1.3-1.4,2v13.9H631
	v-19.7h0.2c0.1,0,0.1,0,0.2,0C631.5,495.2,631.6,495.2,631.7,495.2"/>
<path class="st0" d="M664.4,505h-1.2c-0.9,0-1.8,0.1-2.7,0.2c-0.9,0.1-1.7,0.3-2.5,0.6c-0.7,0.3-1.4,0.7-1.8,1.3
	c-0.5,0.5-0.7,1.2-0.7,2.1c0,0.8,0.3,1.6,0.8,2.2c0.5,0.7,1.4,1,2.8,1c0.7,0,1.4-0.1,2.1-0.3c0.6-0.2,1.2-0.5,1.7-0.8
	c0.5-0.3,0.9-0.6,1.2-1c0.3-0.4,0.4-0.7,0.4-1V505z M667.9,510.3c0,0.7,0,1.2,0.1,1.6c0.1,0.4,0.2,0.6,0.3,0.8
	c0.2,0.2,0.4,0.3,0.6,0.4c0.3,0.1,0.6,0.1,1,0.1v1.7c-0.3,0.1-0.6,0.2-0.9,0.2c-0.4,0.1-0.7,0.1-1.1,0.1c-0.9,0-1.6-0.2-2.3-0.5
	c-0.6-0.3-1-1-1.1-1.9c-0.7,0.7-1.5,1.3-2.5,1.8c-1,0.5-2.2,0.7-3.8,0.7c-0.7,0-1.4-0.1-2.2-0.3c-0.7-0.2-1.4-0.5-2-0.9
	c-0.6-0.4-1.1-1-1.5-1.8c-0.4-0.8-0.6-1.7-0.6-2.9c0-1.4,0.4-2.6,1.1-3.5c0.7-0.9,1.6-1.6,2.7-2.2c1.1-0.5,2.2-0.9,3.5-1.1
	c1.2-0.2,2.4-0.3,3.4-0.3h0.9c0.3,0,0.6,0,0.9,0v-0.6c0-1.2-0.3-2.2-0.9-2.9c-0.6-0.7-1.7-1-3.4-1c-1.3,0-2.3,0.2-3.2,0.5
	c-0.9,0.3-1.7,0.8-2.5,1.3H654c-0.2-0.4-0.4-0.8-0.6-1.2c-0.1-0.4-0.2-0.7-0.2-1c0-0.4,0.2-0.7,0.7-1c0.4-0.3,1-0.6,1.7-0.9
	c0.7-0.2,1.5-0.4,2.4-0.6c0.9-0.1,1.7-0.2,2.5-0.2c1.4,0,2.6,0.1,3.5,0.4c1,0.3,1.7,0.8,2.3,1.4c0.6,0.6,1,1.4,1.2,2.3
	c0.2,0.9,0.4,2,0.4,3.2V510.3z"/>
<path class="st0" d="M674.4,512.4c-0.2-0.5-0.3-1.1-0.4-1.7c0-0.6-0.1-1.2-0.1-1.8v-19.5h0.2c0.1,0,0.1,0,0.2,0c0.1,0,0.2,0,0.3,0
	c0.7,0,1.4,0.2,2,0.6c0.6,0.4,0.8,1.1,0.8,2.1v3.3h6.2v3.1h-6.2v10.7c0,2.3,0.9,3.4,2.7,3.4c0.4,0,0.9-0.1,1.2-0.2
	c0.4-0.2,0.7-0.3,1-0.6c0.3-0.2,0.6-0.4,0.8-0.6c0.2-0.2,0.3-0.3,0.4-0.4c0.3,0.4,0.6,0.8,0.9,1.2c0.2,0.4,0.4,0.8,0.4,1.1
	c0,0.2-0.1,0.5-0.4,0.8c-0.3,0.3-0.6,0.6-1,0.8c-0.4,0.3-1,0.5-1.6,0.6c-0.7,0.2-1.4,0.3-2.2,0.3c-1.4,0-2.6-0.3-3.4-0.8
	C675.3,514.1,674.7,513.4,674.4,512.4"/>
<path class="st0" d="M688.5,495.1h0.3c0,0,0.1,0,0.2,0c0.1,0,0.2,0,0.3,0c0.8,0,1.4,0.2,2,0.6c0.5,0.4,0.8,1.1,0.8,2.2v13.3
	c0,0.8,0.1,1.4,0.4,1.7c0.2,0.3,0.8,0.5,1.6,0.5v1.5c-0.3,0.1-0.6,0.2-1,0.2c-0.4,0.1-0.9,0.1-1.3,0.1c-0.8,0-1.4-0.1-1.9-0.4
	c-0.4-0.3-0.8-0.6-1-1c-0.2-0.4-0.3-0.9-0.4-1.4c0-0.5-0.1-1-0.1-1.5V495.1z M692.4,488.9c0,0.6-0.2,1.2-0.6,1.6
	c-0.4,0.4-1,0.6-1.6,0.6c-0.6,0-1.2-0.2-1.6-0.6c-0.4-0.4-0.6-1-0.6-1.6c0-0.7,0.2-1.3,0.6-1.7c0.4-0.4,1-0.7,1.6-0.7
	c0.6,0,1.2,0.2,1.6,0.7C692.2,487.6,692.4,488.2,692.4,488.9"/>
<path class="st0" d="M711.9,505c0-0.9-0.1-1.7-0.2-2.6c-0.2-0.8-0.4-1.6-0.8-2.3c-0.4-0.7-0.9-1.2-1.6-1.6c-0.7-0.4-1.6-0.6-2.7-0.6
	c-1.1,0-1.9,0.2-2.7,0.6c-0.7,0.4-1.3,1-1.7,1.6c-0.4,0.7-0.7,1.4-0.9,2.3c-0.2,0.9-0.3,1.7-0.3,2.6c0,0.9,0.1,1.7,0.2,2.6
	c0.2,0.9,0.4,1.7,0.9,2.4c0.4,0.7,1,1.3,1.7,1.8c0.7,0.5,1.6,0.7,2.7,0.7c1.1,0,2-0.2,2.8-0.7c0.7-0.5,1.3-1,1.7-1.8
	c0.4-0.7,0.7-1.5,0.8-2.4C711.8,506.8,711.9,505.9,711.9,505 M715.6,505c0,1.4-0.2,2.7-0.5,3.9c-0.3,1.3-0.9,2.4-1.6,3.4
	c-0.7,1-1.7,1.8-2.9,2.3c-1.2,0.6-2.6,0.9-4.3,0.9c-1.7,0-3.1-0.3-4.2-0.8c-1.2-0.5-2.1-1.3-2.8-2.2c-0.7-0.9-1.3-2.1-1.6-3.3
	c-0.3-1.3-0.5-2.6-0.5-4c0-1.4,0.2-2.7,0.6-4c0.4-1.2,1-2.3,1.7-3.3c0.8-0.9,1.8-1.7,2.9-2.2c1.2-0.6,2.5-0.8,4.1-0.8
	c1.6,0,3,0.3,4.2,0.8c1.1,0.6,2.1,1.3,2.8,2.2c0.7,0.9,1.3,2,1.6,3.2C715.4,502.4,715.6,503.7,715.6,505"/>
<path class="st0" d="M721.1,495.2c0.6,0,1.2,0.2,1.7,0.5c0.5,0.3,0.8,0.9,0.9,1.6c0.7-0.6,1.5-1.2,2.6-1.7c1.1-0.5,2.4-0.7,3.9-0.7
	c1.9,0,3.3,0.4,4.3,1.2c1,0.8,1.7,1.9,2,3.1c0.1,0.6,0.2,1.2,0.2,1.8c0,0.7,0,1.3,0,2v11.8h-3.5v-11.7c0-0.5,0-1,0-1.5
	c0-0.5-0.1-0.9-0.2-1.4c-0.2-0.7-0.6-1.3-1.2-1.7c-0.6-0.4-1.5-0.6-2.7-0.6c-1.6,0-2.8,0.3-3.8,0.9c-1,0.6-1.4,1.3-1.4,2v13.9h-3.6
	v-19.7h0.2c0.1,0,0.1,0,0.2,0C720.9,495.2,721,495.2,721.1,495.2"/>
<path class="st0" d="M753.8,505h-1.2c-0.9,0-1.8,0.1-2.7,0.2c-0.9,0.1-1.7,0.3-2.5,0.6c-0.7,0.3-1.4,0.7-1.8,1.3
	c-0.5,0.5-0.7,1.2-0.7,2.1c0,0.8,0.3,1.6,0.8,2.2c0.5,0.7,1.4,1,2.8,1c0.7,0,1.4-0.1,2.1-0.3c0.6-0.2,1.2-0.5,1.7-0.8
	c0.5-0.3,0.9-0.6,1.2-1c0.3-0.4,0.4-0.7,0.4-1V505z M757.3,510.3c0,0.7,0,1.2,0.1,1.6c0.1,0.4,0.2,0.6,0.3,0.8
	c0.2,0.2,0.4,0.3,0.6,0.4c0.3,0.1,0.6,0.1,1,0.1v1.7c-0.3,0.1-0.6,0.2-0.9,0.2c-0.4,0.1-0.7,0.1-1.1,0.1c-0.9,0-1.6-0.2-2.3-0.5
	c-0.6-0.3-1-1-1.1-1.9c-0.7,0.7-1.5,1.3-2.5,1.8c-1,0.5-2.2,0.7-3.8,0.7c-0.7,0-1.4-0.1-2.2-0.3c-0.7-0.2-1.4-0.5-2-0.9
	c-0.6-0.4-1.1-1-1.5-1.8c-0.4-0.8-0.6-1.7-0.6-2.9c0-1.4,0.4-2.6,1.1-3.5c0.7-0.9,1.6-1.6,2.7-2.2c1.1-0.5,2.2-0.9,3.5-1.1
	c1.2-0.2,2.4-0.3,3.4-0.3h0.9c0.3,0,0.6,0,0.9,0v-0.6c0-1.2-0.3-2.2-0.9-2.9c-0.6-0.7-1.7-1-3.4-1c-1.2,0-2.3,0.2-3.2,0.5
	c-0.9,0.3-1.7,0.8-2.5,1.3h-0.4c-0.2-0.4-0.4-0.8-0.6-1.2c-0.1-0.4-0.2-0.7-0.2-1c0-0.4,0.2-0.7,0.7-1c0.4-0.3,1-0.6,1.7-0.9
	c0.7-0.2,1.5-0.4,2.3-0.6c0.9-0.1,1.7-0.2,2.5-0.2c1.4,0,2.6,0.1,3.6,0.4c0.9,0.3,1.7,0.8,2.3,1.4c0.6,0.6,1,1.4,1.3,2.3
	c0.2,0.9,0.4,2,0.4,3.2V510.3z"/>
<path class="st0" d="M766.9,511c0,0.4,0,0.8,0,1.1c0,0.3,0.1,0.5,0.2,0.7c0.1,0.2,0.3,0.3,0.6,0.4c0.3,0.1,0.6,0.1,1.1,0.1v1.5
	c-0.2,0.1-0.6,0.2-1,0.2c-0.4,0.1-0.9,0.1-1.3,0.1c-0.8,0-1.4-0.1-1.8-0.4c-0.4-0.2-0.7-0.6-1-1c-0.2-0.4-0.3-0.9-0.4-1.4
	c-0.1-0.5-0.1-1-0.1-1.5v-25.5h0.2c0.1,0,0.1,0,0.2,0c0.1,0,0.2,0,0.3,0c0.8,0,1.4,0.2,2,0.6c0.5,0.4,0.8,1.1,0.8,2.2V511z"/>
<path class="st0" d="M791,491.1l-4.7,13.3h9.4L791,491.1z M799.5,514.9l-2.8-7.5h-11.2l-2.7,7.5h-3.7l10.1-27.6
	c0.2-0.1,0.5-0.2,0.9-0.2c0.4-0.1,0.8-0.1,1.2-0.1c0.5,0,1,0.1,1.4,0.3c0.4,0.2,0.8,0.7,1,1.4l9.6,26.3H799.5z"/>
<path class="st0" d="M806.9,495.1h0.3c0.1,0,0.1,0,0.2,0c0.1,0,0.2,0,0.3,0c0.8,0,1.4,0.2,2,0.6c0.5,0.4,0.8,1.1,0.8,2.2v13.3
	c0,0.8,0.1,1.4,0.4,1.7c0.2,0.3,0.8,0.5,1.6,0.5v1.5c-0.3,0.1-0.6,0.2-1,0.2c-0.4,0.1-0.9,0.1-1.3,0.1c-0.8,0-1.4-0.1-1.9-0.4
	c-0.4-0.3-0.7-0.6-1-1c-0.2-0.4-0.3-0.9-0.4-1.4c0-0.5-0.1-1-0.1-1.5V495.1z M810.8,488.9c0,0.6-0.2,1.2-0.6,1.6
	c-0.4,0.4-1,0.6-1.6,0.6c-0.6,0-1.2-0.2-1.6-0.6c-0.4-0.4-0.7-1-0.7-1.6c0-0.7,0.2-1.3,0.7-1.7c0.4-0.4,1-0.7,1.6-0.7
	c0.6,0,1.2,0.2,1.6,0.7C810.6,487.6,810.8,488.2,810.8,488.9"/>
<path class="st0" d="M817.5,495.2c0.6,0,1.2,0.2,1.7,0.5c0.5,0.3,0.8,0.9,0.9,1.6c0.4-0.6,1-1.1,1.7-1.7c0.8-0.5,1.7-0.8,2.7-0.8
	c0.3,0,0.6,0,1,0.1c0.3,0,0.7,0.1,1,0.3c0.3,0.1,0.5,0.3,0.7,0.5c0.2,0.2,0.3,0.5,0.3,0.9c0,0.4-0.1,0.9-0.3,1.4
	c-0.2,0.5-0.4,0.9-0.7,1.3c-0.4-0.3-0.8-0.6-1.2-0.8c-0.4-0.2-1-0.3-1.6-0.3c-0.5,0-0.9,0.1-1.4,0.2c-0.4,0.2-0.8,0.4-1.1,0.6
	c-0.3,0.3-0.6,0.6-0.8,0.9c-0.2,0.3-0.3,0.7-0.3,1v13.8h-3.5v-19.7h0.3c0.1,0,0.2,0,0.3,0C817.4,495.2,817.4,495.2,817.5,495.2"/>
<path class="st0" d="M844.4,505.1c0-1-0.1-1.9-0.3-2.8c-0.2-0.9-0.5-1.6-0.9-2.3c-0.4-0.6-1-1.1-1.6-1.5c-0.7-0.4-1.5-0.6-2.5-0.6
	c-1.3,0-2.4,0.3-3.3,0.8c-0.9,0.6-1.3,1.2-1.3,2v9.5c0.2,0.2,0.4,0.5,0.7,0.7c0.3,0.3,0.6,0.5,1,0.7c0.4,0.2,0.9,0.4,1.4,0.6
	c0.5,0.2,1.1,0.3,1.6,0.3c1.7,0,3-0.6,3.9-1.9C844,509.3,844.4,507.5,844.4,505.1 M831.7,495.2c0.7,0,1.2,0.1,1.7,0.5
	c0.5,0.3,0.8,0.8,1,1.5c0.5-0.6,1.3-1.2,2.2-1.7c0.9-0.5,2.1-0.7,3.5-0.7c1.1,0,2.1,0.2,3.1,0.5c1,0.4,1.8,0.9,2.5,1.7
	c0.7,0.8,1.3,1.8,1.7,3.1c0.4,1.3,0.6,2.8,0.6,4.6c0,2.1-0.3,3.8-0.8,5.2c-0.5,1.4-1.2,2.5-2,3.3c-0.8,0.8-1.7,1.4-2.7,1.7
	c-1,0.3-2,0.5-2.9,0.5c-1.5,0-2.7-0.3-3.5-0.8c-0.9-0.5-1.5-1-1.8-1.4v10.5h-3.5v-28.6h0.2c0.1,0,0.2,0,0.2,0
	C831.5,495.2,831.6,495.2,831.7,495.2"/>
<path class="st0" d="M866.7,505c0-0.9-0.1-1.7-0.2-2.6c-0.2-0.8-0.4-1.6-0.8-2.3c-0.4-0.7-0.9-1.2-1.6-1.6c-0.7-0.4-1.6-0.6-2.7-0.6
	c-1.1,0-2,0.2-2.7,0.6c-0.7,0.4-1.3,1-1.7,1.6c-0.4,0.7-0.7,1.4-0.9,2.3c-0.2,0.9-0.3,1.7-0.3,2.6c0,0.9,0.1,1.7,0.2,2.6
	c0.2,0.9,0.4,1.7,0.9,2.4c0.4,0.7,1,1.3,1.7,1.8c0.7,0.5,1.6,0.7,2.7,0.7c1.1,0,2-0.2,2.8-0.7c0.7-0.5,1.3-1,1.7-1.8
	c0.4-0.7,0.7-1.5,0.8-2.4C866.6,506.8,866.7,505.9,866.7,505 M870.4,505c0,1.4-0.2,2.7-0.5,3.9c-0.3,1.3-0.9,2.4-1.6,3.4
	c-0.7,1-1.7,1.8-2.9,2.3c-1.2,0.6-2.6,0.9-4.3,0.9c-1.7,0-3.1-0.3-4.2-0.8c-1.2-0.5-2.1-1.3-2.8-2.2c-0.7-0.9-1.3-2.1-1.6-3.3
	c-0.3-1.3-0.5-2.6-0.5-4c0-1.4,0.2-2.7,0.6-4c0.4-1.2,1-2.3,1.7-3.3c0.8-0.9,1.7-1.7,2.9-2.2c1.2-0.6,2.5-0.8,4.1-0.8
	c1.6,0,3,0.3,4.2,0.8c1.1,0.6,2.1,1.3,2.8,2.2c0.7,0.9,1.3,2,1.6,3.2C870.2,502.4,870.4,503.7,870.4,505"/>
<path class="st0" d="M875.9,495.2c0.6,0,1.2,0.2,1.7,0.5c0.5,0.3,0.8,0.9,0.9,1.6c0.4-0.6,1-1.1,1.7-1.7c0.8-0.5,1.7-0.8,2.7-0.8
	c0.3,0,0.6,0,1,0.1c0.4,0,0.7,0.1,1,0.3c0.3,0.1,0.5,0.3,0.7,0.5c0.2,0.2,0.3,0.5,0.3,0.9c0,0.4-0.1,0.9-0.3,1.4
	c-0.2,0.5-0.4,0.9-0.7,1.3c-0.4-0.3-0.8-0.6-1.2-0.8c-0.4-0.2-0.9-0.3-1.6-0.3c-0.5,0-0.9,0.1-1.4,0.2c-0.4,0.2-0.8,0.4-1.1,0.6
	c-0.3,0.3-0.6,0.6-0.8,0.9c-0.2,0.3-0.3,0.7-0.3,1v13.8h-3.5v-19.7h0.3c0.1,0,0.2,0,0.3,0C875.8,495.2,875.8,495.2,875.9,495.2"/>
<path class="st0" d="M889.7,512.4c-0.2-0.5-0.3-1.1-0.3-1.7c0-0.6-0.1-1.2-0.1-1.8v-19.5h0.2c0.1,0,0.1,0,0.2,0c0.1,0,0.2,0,0.3,0
	c0.8,0,1.4,0.2,2,0.6c0.6,0.4,0.8,1.1,0.8,2.1v3.3h6.2v3.1h-6.2v10.7c0,2.3,0.9,3.4,2.7,3.4c0.4,0,0.9-0.1,1.3-0.2
	c0.4-0.2,0.7-0.3,1-0.6c0.3-0.2,0.6-0.4,0.8-0.6c0.2-0.2,0.3-0.3,0.4-0.4c0.3,0.4,0.6,0.8,0.9,1.2c0.2,0.4,0.4,0.8,0.4,1.1
	c0,0.2-0.1,0.5-0.4,0.8c-0.3,0.3-0.6,0.6-1,0.8c-0.4,0.3-1,0.5-1.7,0.6c-0.6,0.2-1.4,0.3-2.1,0.3c-1.4,0-2.6-0.3-3.5-0.8
	C890.7,514.1,890.1,513.4,889.7,512.4"/>
<path class="st0" d="M418,498.5h13.4v-11.9c0.1,0,0.2,0,0.3,0c0.1,0,0.2,0,0.3,0c0.1,0,0.2,0,0.4,0c0.3,0,0.5,0,0.8,0.1
	c0.3,0.1,0.6,0.2,0.8,0.4c0.3,0.2,0.5,0.4,0.7,0.8c0.2,0.3,0.3,0.8,0.3,1.4v25.6h-3.7v-13H418v13h-3.7v-28.2c0.1,0,0.2,0,0.3,0
	c0.1,0,0.2,0,0.3,0c0.1,0,0.2,0,0.4,0c0.3,0,0.6,0,0.9,0.1c0.3,0.1,0.6,0.2,0.8,0.4c0.3,0.2,0.5,0.4,0.6,0.8
	c0.2,0.3,0.2,0.8,0.2,1.4V498.5z"/>
<path class="st0" d="M452.4,504.7h-1.2c-0.9,0-1.8,0.1-2.7,0.2c-0.9,0.1-1.8,0.3-2.5,0.6c-0.8,0.3-1.4,0.7-1.8,1.3
	c-0.5,0.5-0.7,1.3-0.7,2.2c0,0.9,0.2,1.6,0.8,2.2c0.5,0.6,1.4,1,2.8,1c0.7,0,1.4-0.1,2.1-0.3c0.7-0.2,1.2-0.5,1.7-0.8
	c0.5-0.3,0.9-0.6,1.2-1c0.3-0.4,0.4-0.7,0.4-1.1V504.7z M455.9,510.1c0,0.7,0,1.2,0.1,1.6c0.1,0.4,0.2,0.7,0.3,0.8
	c0.2,0.2,0.4,0.3,0.6,0.4c0.3,0.1,0.6,0.1,1,0.1v1.7c-0.3,0.1-0.6,0.2-0.9,0.2c-0.4,0.1-0.7,0.1-1.1,0.1c-0.9,0-1.6-0.2-2.3-0.5
	c-0.7-0.4-1-1-1.1-1.9c-0.7,0.7-1.5,1.3-2.5,1.8c-1,0.5-2.3,0.7-3.9,0.7c-0.7,0-1.5-0.1-2.2-0.3c-0.7-0.2-1.4-0.5-2-0.9
	c-0.6-0.4-1.1-1-1.5-1.8c-0.4-0.8-0.6-1.7-0.6-2.9c0-1.5,0.4-2.7,1.1-3.6c0.7-0.9,1.7-1.6,2.7-2.2c1.1-0.5,2.3-0.9,3.5-1.1
	c1.3-0.2,2.4-0.3,3.4-0.3h0.9c0.3,0,0.6,0,0.9,0v-0.6c0-1.3-0.3-2.2-0.9-2.9c-0.6-0.7-1.8-1-3.4-1c-1.3,0-2.3,0.2-3.2,0.5
	c-0.9,0.3-1.7,0.8-2.5,1.3h-0.4c-0.2-0.4-0.4-0.8-0.6-1.2c-0.2-0.4-0.2-0.8-0.2-1c0-0.4,0.2-0.7,0.7-1c0.4-0.3,1-0.6,1.7-0.9
	c0.7-0.3,1.5-0.4,2.4-0.6c0.9-0.1,1.7-0.2,2.6-0.2c1.4,0,2.6,0.1,3.6,0.5c1,0.3,1.7,0.8,2.3,1.4c0.6,0.6,1,1.4,1.3,2.3
	c0.2,0.9,0.4,2,0.4,3.2V510.1z"/>
<path class="st0" d="M471.8,494.5c1,0,2.1,0.2,3.1,0.6c1.1,0.4,1.9,1.1,2.4,2c0.6-0.7,1.5-1.3,2.6-1.8c1.1-0.5,2.4-0.8,3.8-0.8
	c1.8,0,3.2,0.4,4.2,1.3c1,0.8,1.7,1.9,1.9,3.2c0.1,0.6,0.2,1.2,0.3,1.9c0,0.7,0,1.4,0,2v11.9h-3.6v-11.8c0-0.5,0-1,0-1.5
	c0-0.5-0.1-0.9-0.2-1.4c-0.2-0.7-0.6-1.3-1.2-1.7c-0.6-0.4-1.5-0.6-2.8-0.6c-0.9,0-1.8,0.2-2.6,0.6c-0.8,0.4-1.4,0.8-1.8,1.3
	c0.1,0.5,0.1,1,0.1,1.5c0,0.5,0,1.1,0,1.6v12h-3.6v-11.8c0-0.6,0-1.1-0.1-1.7c-0.1-0.5-0.2-1-0.3-1.4c-0.4-1.4-1.7-2.1-3.8-2.1
	c-0.6,0-1.2,0.1-1.8,0.2c-0.6,0.2-1.1,0.4-1.5,0.7c-0.4,0.3-0.8,0.6-1.1,0.9c-0.3,0.4-0.4,0.7-0.4,1v14.1h-3.6v-19.8h0.3
	c0.1,0,0.2,0,0.3,0c0.1,0,0.2,0,0.3,0c0.7,0,1.3,0.2,1.8,0.5c0.5,0.4,0.7,0.9,0.9,1.6c0.7-0.7,1.5-1.3,2.6-1.7
	C469.1,494.7,470.4,494.5,471.8,494.5"/>
<path class="st0" d="M507.3,504.7h-1.2c-0.9,0-1.8,0.1-2.7,0.2c-0.9,0.1-1.7,0.3-2.5,0.6c-0.7,0.3-1.4,0.7-1.8,1.3
	c-0.5,0.5-0.7,1.3-0.7,2.2c0,0.9,0.2,1.6,0.8,2.2c0.5,0.6,1.4,1,2.8,1c0.7,0,1.4-0.1,2.1-0.3c0.7-0.2,1.2-0.5,1.7-0.8
	c0.5-0.3,0.9-0.6,1.2-1c0.3-0.4,0.4-0.7,0.4-1.1V504.7z M510.8,510.1c0,0.7,0,1.2,0.1,1.6c0.1,0.4,0.2,0.7,0.3,0.8
	c0.2,0.2,0.4,0.3,0.6,0.4c0.3,0.1,0.6,0.1,1,0.1v1.7c-0.2,0.1-0.6,0.2-0.9,0.2c-0.4,0.1-0.7,0.1-1.1,0.1c-0.9,0-1.6-0.2-2.3-0.5
	c-0.7-0.4-1-1-1.2-1.9c-0.7,0.7-1.5,1.3-2.5,1.8c-1,0.5-2.3,0.7-3.9,0.7c-0.7,0-1.5-0.1-2.2-0.3c-0.7-0.2-1.4-0.5-2-0.9
	c-0.6-0.4-1.1-1-1.5-1.8c-0.4-0.8-0.6-1.7-0.6-2.9c0-1.5,0.4-2.7,1.1-3.6c0.8-0.9,1.7-1.6,2.7-2.2c1.1-0.5,2.3-0.9,3.5-1.1
	c1.2-0.2,2.4-0.3,3.4-0.3h0.9c0.3,0,0.6,0,0.9,0v-0.6c0-1.3-0.3-2.2-0.9-2.9c-0.6-0.7-1.7-1-3.5-1c-1.3,0-2.3,0.2-3.2,0.5
	c-0.9,0.3-1.7,0.8-2.5,1.3h-0.4c-0.2-0.4-0.4-0.8-0.6-1.2c-0.2-0.4-0.2-0.8-0.2-1c0-0.4,0.2-0.7,0.7-1c0.5-0.3,1-0.6,1.7-0.9
	c0.7-0.3,1.5-0.4,2.4-0.6c0.9-0.1,1.7-0.2,2.6-0.2c1.4,0,2.6,0.1,3.6,0.5c1,0.3,1.7,0.8,2.3,1.4c0.6,0.6,1,1.4,1.3,2.3
	c0.2,0.9,0.4,2,0.4,3.2V510.1z"/>
<path class="st0" d="M519.8,504.7c0,1.1,0.1,2.1,0.3,3c0.2,0.9,0.5,1.7,0.9,2.4c0.4,0.7,1,1.2,1.7,1.6c0.7,0.4,1.5,0.6,2.6,0.6
	c0.7,0,1.3-0.1,1.9-0.3c0.6-0.2,1.1-0.4,1.5-0.6c0.4-0.2,0.8-0.5,1-0.9c0.2-0.3,0.3-0.7,0.3-1v-9.8h0c-0.2-0.2-0.4-0.4-0.7-0.6
	c-0.3-0.2-0.6-0.5-1-0.7c-0.4-0.2-0.9-0.4-1.4-0.6c-0.5-0.2-1.1-0.2-1.8-0.2c-1.6,0-2.9,0.6-3.8,1.8
	C520.2,500.6,519.8,502.3,519.8,504.7 M533.4,514.7h-3.5V513c-0.2,0.2-0.5,0.5-0.8,0.8c-0.3,0.3-0.7,0.5-1.2,0.8
	c-0.5,0.2-1,0.4-1.6,0.6c-0.6,0.2-1.2,0.2-1.9,0.2c-1.1,0-2.2-0.2-3.2-0.5c-1-0.4-1.9-1-2.7-1.7c-0.8-0.8-1.4-1.8-1.8-3.2
	c-0.4-1.3-0.7-2.9-0.7-4.8c0-1.8,0.2-3.5,0.7-4.8c0.5-1.3,1.1-2.4,1.9-3.3c0.8-0.9,1.7-1.5,2.7-1.9c1-0.4,2.1-0.6,3.2-0.6
	c1.3,0,2.3,0.2,3.2,0.6c0.9,0.4,1.6,0.9,2.2,1.4v-11.6h0.2c0.1,0,0.1,0,0.2,0c0.1,0,0.2,0,0.3,0c0.8,0,1.5,0.2,2,0.6
	c0.5,0.4,0.8,1.1,0.8,2.2V514.7z"/>
<path class="st0" d="M673.2,546.6c0.2,0,0.4,0,0.6-0.1c0.2-0.1,0.4-0.2,0.5-0.3c0.2-0.1,0.3-0.3,0.3-0.5c0.1-0.2,0.1-0.4,0.1-0.6
	c0-0.2,0-0.4-0.1-0.6c-0.1-0.2-0.2-0.4-0.4-0.5c-0.2-0.2-0.3-0.3-0.5-0.4c-0.2-0.1-0.4-0.1-0.6-0.1c-0.2,0-0.4,0-0.6,0.1
	c-0.2,0.1-0.3,0.2-0.5,0.4c-0.1,0.1-0.2,0.3-0.3,0.5c-0.1,0.2-0.1,0.4-0.1,0.6c0,0.5,0.2,0.8,0.5,1.1
	C672.4,546.5,672.8,546.6,673.2,546.6"/>
<path class="st0" d="M666.3,546.6c0.2,0,0.4,0,0.6-0.1c0.2-0.1,0.4-0.2,0.5-0.4c0.1-0.1,0.3-0.3,0.4-0.5c0.1-0.2,0.1-0.4,0.1-0.6
	c0-0.2,0-0.4-0.1-0.6s-0.2-0.4-0.3-0.5c-0.2-0.2-0.3-0.3-0.5-0.4c-0.2-0.1-0.4-0.1-0.6-0.1c-0.2,0-0.4,0-0.6,0.1
	c-0.2,0.1-0.4,0.2-0.5,0.4c-0.1,0.2-0.2,0.3-0.3,0.5c-0.1,0.2-0.1,0.4-0.1,0.6c0,0.5,0.1,0.8,0.5,1.2
	C665.4,546.5,665.8,546.6,666.3,546.6"/>
<path class="st0" d="M669.7,549.2h-0.1c-1.8,0-3.4,0.6-4.7,1.9c-1.7,1.6-2.7,3.8-2.7,6.8c-0.1,2.3,0.5,4.2,1.8,5.8
	c1.3,1.6,3,2.4,5,2.4h4.6l0,0.3c0,0.1,0,0.5,0,0.6c-0.2,1.2-1.1,1.4-1.7,1.4h-35.7l0-0.3c-0.6-8.5-3.7-13.1-9.4-13.7
	c-0.3-0.1-0.6-0.1-0.9-0.1c-2.2,0-4.3,0.7-6.4,2.1c-2,1.4-3.7,3.3-5.3,6.3l-0.6,1.1v-18.2c0-0.4-0.1-0.8-0.2-1.1
	c-0.1-0.3-0.3-0.5-0.5-0.6c-0.2-0.1-0.5-0.2-0.7-0.3c-0.3-0.1-0.5-0.1-0.7-0.1c-0.1,0-0.3,0-0.4,0h-0.1c-0.1,0-0.2,0-0.3,0h-0.1
	v24.9h-33c-0.9,0-1.7-0.4-2.4-1.2c-0.8-0.9-1.3-2.1-1.4-3.5v-7c0-0.5-0.1-0.9-0.2-1.2c-0.1-0.3-0.3-0.5-0.6-0.7
	c-0.3-0.2-0.5-0.3-0.8-0.3c-0.3-0.1-0.5-0.1-0.8-0.1c-0.2,0-0.4,0-0.5,0c-0.1,0-0.2,0-0.3,0c-0.1,0-0.1,0-0.1,0.5l0,12.4
	c0,3-0.8,5.4-2.4,7.4c-1.7,2.1-3.9,3.2-6.6,3.4l-0.7,0l0.3,0.6c0.4,1,0.7,1.6,0.9,2l0.1,0.3l0.3,0c3.3-0.3,6-1.8,8.1-4.3
	c1.6-1.9,2.6-4.2,3-6.8l0.1-0.7l0.5,0.5c0.1,0.1,0.2,0.2,0.3,0.3c1,0.9,2.1,1.4,5.8,1.4h94.2c0.5,0,2.1-1.3,2.2-3.9v-11
	C676.7,551.7,674.4,549.2,669.7,549.2 M669.7,563.1c-1.3,0-2.3-0.5-3.1-1.6c-0.8-1-1.1-2.3-1.1-3.9c0.1-3.7,1.9-6.1,4.4-6.1
	c1.4,0,3.3,0.4,3.4,4l0.1,7.6H669.7z M613.8,568.4l0.2-0.5c1.8-4.2,4-7.2,6.7-9c1.7-1.1,3.5-1.7,5.4-1.7c0.2,0,0.4,0,0.6,0
	c2.7,0.2,4.6,2.2,5.6,5.9c0.4,1.4,0.7,2.9,0.8,4.9l0,0.3H613.8z"/>
<path class="st0" d="M437.3,552c-0.4-1.7-1.1-3.3-2.1-4.5c-0.9-1.3-2.2-2.3-3.6-3c-1.5-0.7-3.3-1.1-5.3-1.1c-2.1,0-4,0.4-5.5,1.2
	c-1.5,0.8-2.8,1.8-3.8,3.1c-1,1.3-1.7,2.8-2.2,4.6c-0.5,1.7-0.7,3.5-0.7,5.4c0,1.9,0.2,3.7,0.6,5.5c0.4,1.8,1.1,3.3,2,4.7
	c0.9,1.3,2.2,2.4,3.7,3.2c1.5,0.8,3.3,1.2,5.4,1.2c2.1,0,4-0.4,5.5-1.2c1.5-0.8,2.8-1.8,3.7-3.2c1-1.3,1.7-2.9,2.1-4.6
	c0.5-1.8,0.7-3.6,0.7-5.6C438,555.6,437.7,553.7,437.3,552 M433.8,561.8c-0.3,1.4-0.7,2.6-1.4,3.6c-0.6,1.1-1.5,1.9-2.5,2.5
	c-1,0.6-2.3,0.9-3.8,0.9c-1.5,0-2.8-0.3-3.9-0.9c-1-0.6-1.9-1.5-2.5-2.5c-0.6-1.1-1.1-2.3-1.4-3.6c-0.3-1.4-0.4-2.8-0.4-4.3
	c0-1.5,0.1-2.9,0.4-4.2c0.3-1.3,0.7-2.5,1.4-3.5c0.6-1,1.5-1.8,2.5-2.4c1.1-0.6,2.4-0.9,3.9-0.9c1.5,0,2.8,0.3,3.8,0.9
	c1,0.6,1.9,1.4,2.5,2.4c0.6,1,1.1,2.2,1.4,3.5c0.3,1.3,0.4,2.7,0.4,4.2C434.2,559,434,560.5,433.8,561.8"/>
<path class="st0" d="M430.4,572c-0.5-0.3-0.9-0.6-1.3-0.8c-0.4-0.2-0.8-0.3-1.2-0.3c-0.3,0-0.6,0.1-1,0.4c-0.3,0.2-0.6,0.5-0.7,0.8
	c0.3,0.5,0.8,1,1.3,1.5c0.5,0.6,1.2,1.1,1.8,1.6c0.7,0.5,1.4,0.9,2.1,1.3c0.7,0.3,1.4,0.5,2.1,0.5c0.7,0,1.3-0.3,1.8-0.9
	c0.5-0.6,0.7-1.4,0.7-2.4c-1.4,0-2.5-0.2-3.4-0.6C431.8,572.7,431,572.3,430.4,572"/>
<path class="st0" d="M463.4,571.5l-2.8-7.4h-11.2l-2.7,7.4h-3.6l10-27.4c0.2-0.1,0.5-0.2,0.9-0.2c0.4-0.1,0.8-0.1,1.2-0.1
	c0.5,0,1,0.1,1.4,0.3c0.4,0.2,0.8,0.7,1,1.4l9.6,26.1H463.4z M455.1,547.9l-4.7,13.2h9.3L455.1,547.9z"/>
<path class="st0" d="M479,547h-8.8c0-0.1-0.1-0.3-0.1-0.4c0-0.1,0-0.2,0-0.4v-0.4c0-0.5,0.2-1,0.6-1.4c0.4-0.4,1-0.6,1.9-0.6h19
	c0,0.1,0,0.3,0.1,0.4c0,0.1,0,0.2,0,0.3c0,0.1,0,0.2,0,0.3c0,0.6-0.2,1.1-0.6,1.6c-0.4,0.4-1,0.6-1.9,0.6h-6.5v24.5H479V547z"/>
<path class="st0" d="M514.1,571.5l-2.8-7.4h-11.2l-2.7,7.4h-3.6l10-27.4c0.2-0.1,0.5-0.2,0.9-0.2c0.4-0.1,0.8-0.1,1.2-0.1
	c0.5,0,1,0.1,1.4,0.3c0.4,0.2,0.8,0.7,1,1.4l9.6,26.1H514.1z M505.8,547.9l-4.7,13.2h9.3L505.8,547.9z"/>
<path class="st0" d="M542.5,551.4c0,1.2-0.2,2.2-0.5,3.1c-0.3,0.9-0.8,1.7-1.3,2.4c-0.6,0.7-1.2,1.2-1.9,1.7c-0.7,0.4-1.5,0.8-2.3,1
	l7.6,12c-0.3,0.1-0.6,0.2-1,0.3s-0.7,0.1-1,0.1c-1.3,0-2.2-0.5-2.9-1.6l-6.5-10.1H529v11.3h-3.6v-27.6c1-0.1,2.1-0.2,3.2-0.3
	c1.1-0.1,2.2-0.1,3.3-0.1c3.8,0,6.5,0.6,8.1,1.9C541.7,546.7,542.5,548.7,542.5,551.4 M538.7,551.6c0-1-0.2-1.9-0.5-2.5
	c-0.3-0.7-0.8-1.2-1.4-1.6c-0.6-0.4-1.3-0.6-2.2-0.8c-0.8-0.1-1.8-0.2-2.8-0.2c-0.7,0-1.2,0-1.7,0c-0.5,0-1,0.1-1.4,0.1h0.1v10.4h3
	c1,0,1.9-0.1,2.8-0.3c0.8-0.2,1.5-0.5,2.2-1c0.6-0.4,1.1-1,1.4-1.7C538.6,553.5,538.7,552.6,538.7,551.6"/>
<path class="st0" d="M426.8,473.6c0.4,0.4,1,0.6,1.6,0.6c0.3,0,0.6-0.1,0.9-0.2c0.3-0.1,0.5-0.3,0.7-0.5c0.2-0.2,0.4-0.4,0.5-0.7
	c0.1-0.3,0.2-0.6,0.2-0.9c0-0.3-0.1-0.6-0.2-0.9c-0.1-0.3-0.3-0.5-0.5-0.7c-0.2-0.2-0.4-0.4-0.7-0.5c-0.3-0.1-0.6-0.2-0.9-0.2
	s-0.6,0.1-0.9,0.2c-0.3,0.1-0.5,0.3-0.7,0.5c-0.2,0.2-0.3,0.4-0.5,0.7c-0.1,0.3-0.2,0.6-0.2,0.9
	C426.2,472.7,426.4,473.2,426.8,473.6"/>
<path class="st0" d="M420.9,473.6c0.4,0.4,1,0.6,1.6,0.6c0.3,0,0.6-0.1,0.9-0.2c0.3-0.1,0.5-0.3,0.7-0.5c0.2-0.2,0.4-0.4,0.5-0.7
	c0.1-0.3,0.2-0.6,0.2-0.9c0-0.3-0.1-0.6-0.2-0.9c-0.1-0.3-0.3-0.5-0.5-0.7c-0.2-0.2-0.4-0.4-0.7-0.5c-0.3-0.1-0.6-0.2-0.9-0.2
	c-0.3,0-0.6,0.1-0.9,0.2c-0.3,0.1-0.5,0.3-0.7,0.5c-0.2,0.2-0.3,0.4-0.5,0.7c-0.1,0.3-0.2,0.6-0.2,0.9
	C420.2,472.7,420.4,473.2,420.9,473.6"/>
<linearGradient id="SVGID_1_" gradientUnits="userSpaceOnUse" x1="274.4726" y1="368.5417" x2="313.0473" y2="407.449">
	<stop  offset="0" style="stop-color:#ED145B"/>
	<stop  offset="1" style="stop-color:#C0194F"/>
</linearGradient>
<path class="st1" d="M280.1,359.6l-17.8,17.8l49.4,49.4c0.8-0.8,1.3-2,1.3-3.2v-32.9c0-2.5-1.4-6-3.2-7.7l-23.3-23.3
	c-0.9-0.9-2-1.3-3.2-1.3C282.1,358.3,281,358.8,280.1,359.6"/>
<linearGradient id="SVGID_2_" gradientUnits="userSpaceOnUse" x1="294.2353" y1="427.7076" x2="254.4967" y2="391.627">
	<stop  offset="0" style="stop-color:#C0194F"/>
	<stop  offset="1" style="stop-color:#740F36"/>
</linearGradient>
<path class="st2" d="M244.5,395.2c-1.8,1.8-1.8,4.6,0,6.4l23.3,23.3c1.8,1.8,5.2,3.2,7.7,3.2h32.9c1.2,0,2.4-0.5,3.2-1.3l-49.4-49.4
	L244.5,395.2z"/>
<linearGradient id="SVGID_3_" gradientUnits="userSpaceOnUse" x1="169.5938" y1="383.5892" x2="239.3993" y2="383.5892">
	<stop  offset="0" style="stop-color:#ED145B"/>
	<stop  offset="1" style="stop-color:#C0194F"/>
</linearGradient>
<path class="st3" d="M174.1,368.7c-2.5,0-4.5,2-4.5,4.5v25.2h69.8c0-1.2-0.4-2.3-1.3-3.2l-23.3-23.3c-1.8-1.8-5.2-3.2-7.7-3.2H174.1
	z"/>
<linearGradient id="SVGID_4_" gradientUnits="userSpaceOnUse" x1="169.5938" y1="413.2831" x2="239.3993" y2="413.2831">
	<stop  offset="0" style="stop-color:#C0194F"/>
	<stop  offset="1" style="stop-color:#740F36"/>
</linearGradient>
<path class="st4" d="M169.6,398.4v25.2c0,2.5,2,4.5,4.5,4.5h32.9c2.5,0,6-1.4,7.7-3.2l23.3-23.3c0.9-0.9,1.3-2,1.3-3.2H169.6z"/>
<linearGradient id="SVGID_5_" gradientUnits="userSpaceOnUse" x1="103.5857" y1="467.8015" x2="157.1248" y2="429.8919">
	<stop  offset="0" style="stop-color:#ED145B"/>
	<stop  offset="1" style="stop-color:#C0194F"/>
</linearGradient>
<path class="st5" d="M132.1,428.1c-2.5,0-6,1.4-7.7,3.2l-23.3,23.3c-1.8,1.8-1.8,4.6,0,6.4l17.8,17.8l49.4-49.4
	c-0.8-0.8-2-1.3-3.2-1.3H132.1z"/>
<linearGradient id="SVGID_6_" gradientUnits="userSpaceOnUse" x1="169.2271" y1="444.2819" x2="126.163" y2="495.8258">
	<stop  offset="0" style="stop-color:#C0194F"/>
	<stop  offset="1" style="stop-color:#740F36"/>
</linearGradient>
<path class="st6" d="M118.9,478.8l17.8,17.8c1.8,1.8,4.6,1.8,6.4,0l23.3-23.3c1.8-1.8,3.2-5.2,3.2-7.7v-32.9c0-1.2-0.5-2.4-1.3-3.2
	L118.9,478.8z"/>
<linearGradient id="SVGID_7_" gradientUnits="userSpaceOnUse" x1="125.0568" y1="571.6471" x2="125.0568" y2="509.4439">
	<stop  offset="0" style="stop-color:#ED145B"/>
	<stop  offset="1" style="stop-color:#C0194F"/>
</linearGradient>
<path class="st7" d="M136.7,503l-23.3,23.3c-1.8,1.8-3.2,5.2-3.2,7.7V567c0,2.5,2,4.5,4.5,4.5h25.2v-69.8
	C138.7,501.7,137.6,502.1,136.7,503"/>
<linearGradient id="SVGID_8_" gradientUnits="userSpaceOnUse" x1="154.7481" y1="506.3028" x2="154.7481" y2="570.1682">
	<stop  offset="0" style="stop-color:#C0194F"/>
	<stop  offset="1" style="stop-color:#740F36"/>
</linearGradient>
<path class="st8" d="M139.9,571.5h25.2c2.5,0,4.5-2,4.5-4.5V534c0-2.5-1.4-6-3.2-7.7L143.1,503c-0.9-0.9-2-1.3-3.2-1.3V571.5z"/>
<linearGradient id="SVGID_9_" gradientUnits="userSpaceOnUse" x1="232.1522" y1="610.8444" x2="180.4975" y2="566.949">
	<stop  offset="0" style="stop-color:#ED145B"/>
	<stop  offset="1" style="stop-color:#C0194F"/>
</linearGradient>
<path class="st9" d="M174.1,571.5c-1.2,0-2.4,0.5-3.2,1.3l49.4,49.4l17.8-17.8c1.8-1.8,1.8-4.6,0-6.4l-23.3-23.3
	c-1.8-1.8-5.2-3.2-7.7-3.2H174.1z"/>
<linearGradient id="SVGID_10_" gradientUnits="userSpaceOnUse" x1="162.5467" y1="580.0579" x2="214.2014" y2="639.9152">
	<stop  offset="0" style="stop-color:#C0194F"/>
	<stop  offset="1" style="stop-color:#740F36"/>
</linearGradient>
<path class="st10" d="M169.6,576V609c0,2.5,1.4,6,3.2,7.7l23.3,23.3c1.8,1.8,4.6,1.8,6.4,0l17.8-17.8l-49.4-49.4
	C170.1,573.6,169.6,574.8,169.6,576"/>
<linearGradient id="SVGID_11_" gradientUnits="userSpaceOnUse" x1="242.9857" y1="616.037" x2="321.113" y2="616.037">
	<stop  offset="0" style="stop-color:#C0194F"/>
	<stop  offset="1" style="stop-color:#740F36"/>
</linearGradient>
<path class="st11" d="M243.2,601.2c0,1.2,0.4,2.3,1.3,3.2l23.3,23.3c1.8,1.8,5.2,3.2,7.7,3.2h32.9c2.5,0,4.5-2,4.5-4.5v-25.2H243.2z
	"/>
<linearGradient id="SVGID_12_" gradientUnits="userSpaceOnUse" x1="311.4892" y1="586.3431" x2="251.6252" y2="586.3431">
	<stop  offset="0" style="stop-color:#ED145B"/>
	<stop  offset="1" style="stop-color:#C0194F"/>
</linearGradient>
<path class="st12" d="M275.5,571.5c-2.5,0-6,1.4-7.7,3.2L244.5,598c-0.9,0.9-1.3,2-1.3,3.2H313V576c0-2.5-2-4.5-4.5-4.5H275.5z"/>
<linearGradient id="SVGID_13_" gradientUnits="userSpaceOnUse" x1="354.6113" y1="510.319" x2="304.2868" y2="557.9833">
	<stop  offset="0" style="stop-color:#ED145B"/>
	<stop  offset="1" style="stop-color:#C0194F"/>
</linearGradient>
<path class="st13" d="M339.5,503l-23.3,23.3c-1.8,1.8-3.2,5.2-3.2,7.7V567c0,1.2,0.5,2.4,1.3,3.2l49.4-49.4L345.9,503
	c-0.9-0.9-2-1.3-3.2-1.3C341.5,501.7,340.3,502.1,339.5,503"/>
<linearGradient id="SVGID_14_" gradientUnits="userSpaceOnUse" x1="333.2595" y1="572.6667" x2="374.2729" y2="530.3232">
	<stop  offset="0" style="stop-color:#C0194F"/>
	<stop  offset="1" style="stop-color:#740F36"/>
</linearGradient>
<path class="st14" d="M314.3,570.2c0.8,0.8,2,1.3,3.2,1.3h32.9c2.5,0,6-1.4,7.7-3.2l23.3-23.3c1.8-1.8,1.8-4.6,0-6.4l-17.8-17.8
	L314.3,570.2z"/>
<linearGradient id="SVGID_15_" gradientUnits="userSpaceOnUse" x1="327.8159" y1="428.1313" x2="327.8159" y2="493.5314">
	<stop  offset="0" style="stop-color:#ED145B"/>
	<stop  offset="1" style="stop-color:#C0194F"/>
</linearGradient>
<path class="st15" d="M317.5,428.1c-2.5,0-4.5,2-4.5,4.5v32.9c0,2.5,1.4,6,3.2,7.7l23.3,23.3c0.9,0.9,2,1.3,3.2,1.3v-69.8H317.5z"/>
<linearGradient id="SVGID_16_" gradientUnits="userSpaceOnUse" x1="357.5047" y1="496.6037" x2="357.5047" y2="430.9823">
	<stop  offset="0" style="stop-color:#C0194F"/>
	<stop  offset="1" style="stop-color:#740F36"/>
</linearGradient>
<path class="st16" d="M342.7,428.1v69.8c1.2,0,2.3-0.4,3.2-1.3l23.3-23.3c1.8-1.8,3.2-5.2,3.2-7.7v-32.9c0-2.5-2-4.5-4.5-4.5H342.7z
	"/>
</svg>
